<svg xmlns="http://www.w3.org/2000/svg" xmlns:xlink="http://www.w3.org/1999/xlink" viewBox="0 0 565.68 150.34"><defs><style>.cls-1{fill:none;}.cls-2{clip-path:url(#clip-path);}.cls-3{fill:#e5231b;}</style><clipPath id="clip-path" transform="translate(0)"><rect class="cls-1" width="565.68" height="150.34"/></clipPath></defs><title>Fichier 1</title><g id="Calque_2" data-name="Calque 2"><g id="Calque_1-2" data-name="Calque 1"><g class="cls-2"><path class="cls-3" d="M556.14,100.28l-2.12.55.56,2.13,2.12-.55Zm4.07-6.49a3.33,3.33,0,0,0-1.48-1.67,2.13,2.13,0,0,0-1.92,0,1.87,1.87,0,0,0-1.1,1.24,4.79,4.79,0,0,0,0,2.07A4.67,4.67,0,0,1,555.8,97a1,1,0,0,1-.58.74.86.86,0,0,1-.85,0,2,2,0,0,1-.81-1.94,1.7,1.7,0,0,1,.73-1l-.7-1.51a2.76,2.76,0,0,0-1.33,1.77,4.36,4.36,0,0,0,1.86,4.09,2,2,0,0,0,1.92.07A2.08,2.08,0,0,0,557.22,98a4.67,4.67,0,0,0,0-2.22,4.65,4.65,0,0,1-.09-1.46.92.92,0,0,1,.55-.71,1,1,0,0,1,.8,0,1.17,1.17,0,0,1,.63.66,1.39,1.39,0,0,1,.09,1,1.77,1.77,0,0,1-.68.87l.7,1.52A2.76,2.76,0,0,0,560.49,96a3.11,3.11,0,0,0-.28-2.21m-8.8-7.41a2.93,2.93,0,0,1,1.78-.48,1.86,1.86,0,0,1,1.33.79,1.65,1.65,0,0,1,.33,1.43,3,3,0,0,1-1,1.48Zm3.05,4.87a4.75,4.75,0,0,0,1.39-1.56,3.29,3.29,0,0,0,.41-1.83,3.54,3.54,0,0,0-.75-1.85,3.93,3.93,0,0,0-1.64-1.3,3.6,3.6,0,0,0-2-.21,4.7,4.7,0,0,0-2.06.93,5,5,0,0,0-1.55,1.77,3.2,3.2,0,0,0-.33,1.9,4.26,4.26,0,0,0,2.78,3.28,3.18,3.18,0,0,0,2.41-.26l-1-1.33a1.79,1.79,0,0,1-1.32.2,1.85,1.85,0,0,1-1.08-.74c-.77-1-.51-2.08.77-3.19l3.44,4.57c.16-.1.34-.23.54-.38M542.93,80.07a3.34,3.34,0,0,1,1.78-1.46,2,2,0,0,1,1.8.3,2.13,2.13,0,0,1,.73.84,2,2,0,0,1,.2,1.18,3.12,3.12,0,0,1-.59,1.43l-.23.35a3.2,3.2,0,0,1-1.78,1.45,2.11,2.11,0,0,1-1.77-.36,1.88,1.88,0,0,1-.88-1.61,3.71,3.71,0,0,1,.74-2.12m2.85,6.79,6.22-9.1-1.36-.93-2.34,3.41,0-.95a2.14,2.14,0,0,0-.48-.76,4.17,4.17,0,0,0-.8-.72,3.92,3.92,0,0,0-1.87-.69,3.54,3.54,0,0,0-2,.42,5.49,5.49,0,0,0-2.6,3.63,3.35,3.35,0,0,0,.2,1.89,3.46,3.46,0,0,0,1.29,1.52,4.21,4.21,0,0,0,1.06.53,2.7,2.7,0,0,0,1,.15l1-.37-.72,1Zm-4.9-13.25,1.45.82.93-1.66L541.81,72Zm-4.34,7.7,1.44.81,3.91-6.94-1.44-.81Zm-3.23-2,6.84-5.09-1.48-.94-5.48,4.51,1.73-6.89-1.53-1-1.7,8.35ZM527.8,67.48,531,65l.08-.12L529.63,64l-3,2.77Zm-5.33,2.14,2-3.63,1.36.76.57-1L525.08,65l.93-1.66-1.42-.8-.94,1.66-1-.55-.56,1,1,.56L521,69c-.26.46-.43.77-.51.94a1.58,1.58,0,0,0-.14,1.25,2.2,2.2,0,0,0,1,1,9.36,9.36,0,0,0,1.1.52l.56-1-.45-.21a1.1,1.1,0,0,1-.53-.52,1,1,0,0,1,.14-.71c.06-.12.16-.32.31-.58m-7.88-3.76a1.23,1.23,0,0,1,1.1-.74,3.74,3.74,0,0,1,1.83.49l.6.34-.33.66a2.08,2.08,0,0,1-1.1,1.09,1.65,1.65,0,0,1-1.38-.11,1.62,1.62,0,0,1-.8-.74,1.13,1.13,0,0,1,.08-1M513,65.19a2.07,2.07,0,0,0-.11,1.84,2.8,2.8,0,0,0,1.37,1.37,3.47,3.47,0,0,0,2,.43l.74-.58-.38,1.1,1.46.73a15.35,15.35,0,0,1,.77-1.87l1.26-2.51c.19-.38.35-.72.47-1a2.28,2.28,0,0,0,0-1.83,3.39,3.39,0,0,0-1.69-1.5,3.49,3.49,0,0,0-2.34-.37,2.64,2.64,0,0,0-1.76,1.36l1.47.75a1.44,1.44,0,0,1,2.07-.68,1.54,1.54,0,0,1,.78.72,1.07,1.07,0,0,1,0,.89c-.07.18-.19.45-.36.79l-.09.17-.45-.23q-4-2-5.18.45m4.7-5,1,.49.88-.65v1.09l1,.5-.12-2-1.08-.55ZM507,61l.15-.37a3.2,3.2,0,0,1,1.43-1.8,2.14,2.14,0,0,1,1.8,0,1.91,1.91,0,0,1,1.2,1.39,3.65,3.65,0,0,1-.26,2.23,3.35,3.35,0,0,1-1.43,1.81,2.05,2.05,0,0,1-1.84.09,2.15,2.15,0,0,1-.89-.66,2.11,2.11,0,0,1-.43-1.12A3.17,3.17,0,0,1,507,61m4.19-3.17a4.05,4.05,0,0,0-1.16-.3,2.29,2.29,0,0,0-1,.07l-.88.57,1.63-4-1.53-.62L504.1,63.81l1.52.62.41-1,.19.93a2.12,2.12,0,0,0,.63.65,4.82,4.82,0,0,0,.93.53,4,4,0,0,0,2,.27A3.53,3.53,0,0,0,511.6,65,5,5,0,0,0,513,63a4.82,4.82,0,0,0,.38-2.09,3.34,3.34,0,0,0-.6-1.8,3.48,3.48,0,0,0-1.58-1.21m-11.76-4.44a3.32,3.32,0,0,0-2.23-.17,2.08,2.08,0,0,0-1.37,1.34,1.88,1.88,0,0,0,.07,1.66,4.85,4.85,0,0,0,1.44,1.48,4.52,4.52,0,0,1,1.15,1.07,1,1,0,0,1,.11.93.86.86,0,0,1-.63.57,1.69,1.69,0,0,1-1-.11,1.73,1.73,0,0,1-.92-.72,1.7,1.7,0,0,1-.16-1.21l-1.55-.6a2.71,2.71,0,0,0,.27,2.19,3.71,3.71,0,0,0,1.88,1.41,3.79,3.79,0,0,0,2.3.24,2,2,0,0,0,1.43-1.28,2.1,2.1,0,0,0,0-1.74,4.63,4.63,0,0,0-1.54-1.59,5,5,0,0,1-1.08-1,.94.94,0,0,1-.1-.89,1,1,0,0,1,.54-.6,1.21,1.21,0,0,1,.91,0,1.4,1.4,0,0,1,.79.67,1.73,1.73,0,0,1,.11,1.1l1.57.6a2.76,2.76,0,0,0-.21-2,3.06,3.06,0,0,0-1.73-1.39m-10-.26a2.85,2.85,0,0,1,1.3-1.3,1.88,1.88,0,0,1,1.54,0,1.63,1.63,0,0,1,1,1.07,3,3,0,0,1-.13,1.79Zm5.08,2.69a5,5,0,0,0,.42-2,3.27,3.27,0,0,0-.57-1.78,3.39,3.39,0,0,0-1.57-1.23,3.78,3.78,0,0,0-2.07-.3,3.56,3.56,0,0,0-1.85.82,4.84,4.84,0,0,0-1.31,1.84,5,5,0,0,0-.46,2.31,3.22,3.22,0,0,0,.67,1.81,4.25,4.25,0,0,0,4.05,1.44,3.16,3.16,0,0,0,1.95-1.43l-1.53-.65a1.84,1.84,0,0,1-1,.84,1.93,1.93,0,0,1-1.31-.1q-1.76-.75-.93-3.15l5.26,2.23a5.65,5.65,0,0,0,.29-.6M485.73,54l3.53-7.84-1.5-.68-3.55,7.88-.46,1a1.37,1.37,0,0,0,0,1.12,1.7,1.7,0,0,0,.87.72,7.54,7.54,0,0,0,1,.38l.48-1a1.33,1.33,0,0,1-.63-.37.56.56,0,0,1,0-.51c.05-.15.15-.38.29-.69m-6-9.21a3.41,3.41,0,0,0-2.2-.4,2.12,2.12,0,0,0-1.5,1.2,1.83,1.83,0,0,0-.1,1.65,4.73,4.73,0,0,0,1.28,1.62,4.65,4.65,0,0,1,1,1.19,1,1,0,0,1,0,.94.87.87,0,0,1-.69.5,1.73,1.73,0,0,1-1-.22,1.84,1.84,0,0,1-.84-.81,1.69,1.69,0,0,1,0-1.22l-1.48-.76a2.72,2.72,0,0,0,0,2.21,3.72,3.72,0,0,0,1.73,1.6,3.89,3.89,0,0,0,2.26.48,2,2,0,0,0,1.55-1.14,2,2,0,0,0,.15-1.73,4.71,4.71,0,0,0-1.36-1.74,4.53,4.53,0,0,1-1-1.1.91.91,0,0,1,0-.89,1,1,0,0,1,.6-.54,1.17,1.17,0,0,1,.9.14,1.36,1.36,0,0,1,.71.75,1.72,1.72,0,0,1,0,1.1l1.49.76a2.76,2.76,0,0,0,0-2,3.13,3.13,0,0,0-1.58-1.57M475,45a2.46,2.46,0,0,0,.06-1.88,3,3,0,0,0-1.44-1.49,4,4,0,0,0-1-.41,2.72,2.72,0,0,0-1,0l-.92.54.64-1.16-1.44-.79-3.85,7,1.45.8,1.72-3.13a4.61,4.61,0,0,1,1.74-2,1.74,1.74,0,0,1,1.71,0,1.69,1.69,0,0,1,.87.94,1.75,1.75,0,0,1-.14,1.21c-.11.25-.28.58-.51,1l-2.08,3.77,1.44.8,2.17-3.93c.26-.47.47-.89.64-1.25M461.35,41.5a1.25,1.25,0,0,1,1.15-.67,3.76,3.76,0,0,1,1.79.61l.58.38-.37.63a2,2,0,0,1-1.17,1,1.65,1.65,0,0,1-1.37-.19,1.62,1.62,0,0,1-.75-.8,1.14,1.14,0,0,1,.14-1m1.45,3.07.78-.53-.45,1.07,1.41.83a16.32,16.32,0,0,1,.89-1.82l1.42-2.42a11.22,11.22,0,0,0,.53-1,2.28,2.28,0,0,0,.13-1.83,3.41,3.41,0,0,0-1.59-1.6,3.49,3.49,0,0,0-2.32-.53A2.69,2.69,0,0,0,461.76,38l1.42.84a1.43,1.43,0,0,1,2.11-.54,1.52,1.52,0,0,1,.73.77,1.1,1.1,0,0,1-.08.88c-.09.18-.23.44-.42.77l-.1.16-.44-.25q-3.81-2.25-5.19.11a2.08,2.08,0,0,0-.23,1.83A2.78,2.78,0,0,0,460.84,44a3.36,3.36,0,0,0,2,.56m-8.71-9.16a3.38,3.38,0,0,1,1.62-1.64,2,2,0,0,1,1.83.12,2.18,2.18,0,0,1,.81.76,2.08,2.08,0,0,1,.32,1.16,3.3,3.3,0,0,1-.44,1.48l-.21.37a3.15,3.15,0,0,1-1.62,1.62,2.13,2.13,0,0,1-1.8-.18,1.87,1.87,0,0,1-1-1.51,3.7,3.7,0,0,1,.52-2.18m3.51,6.46,5.29-9.68-1.45-.79-2,3.64-.08-.95a2.12,2.12,0,0,0-.56-.71,3.7,3.7,0,0,0-.87-.63,3.84,3.84,0,0,0-1.93-.5,3.51,3.51,0,0,0-1.92.61,5,5,0,0,0-1.6,1.83,5.12,5.12,0,0,0-.63,2,3.49,3.49,0,0,0,.39,1.87A3.56,3.56,0,0,0,453.7,40a4.07,4.07,0,0,0,1.1.41,2.61,2.61,0,0,0,1,.06l.94-.48-.6,1.11ZM443.11,29.59a2.87,2.87,0,0,1,1.28-1.32,1.88,1.88,0,0,1,1.54,0,1.65,1.65,0,0,1,1,1.06,3,3,0,0,1-.11,1.8Zm5.11,2.63a5,5,0,0,0,.4-2.06,3.23,3.23,0,0,0-.59-1.77,3.36,3.36,0,0,0-1.59-1.21,3.86,3.86,0,0,0-2.07-.28,3.58,3.58,0,0,0-1.84.85,4.66,4.66,0,0,0-1.29,1.85,5,5,0,0,0-.43,2.31,3.25,3.25,0,0,0,.69,1.8,4.24,4.24,0,0,0,4.07,1.4,3.21,3.21,0,0,0,1.94-1.45L446,33a1.81,1.81,0,0,1-1,.84,1.92,1.92,0,0,1-1.31-.08c-1.18-.48-1.5-1.53-1-3.14L448,32.81a4.8,4.8,0,0,0,.27-.59m-9.11-1.66,2.68-8.17-1.57-.52-2.69,8.21c-.18.54-.29.9-.34,1.09a1.36,1.36,0,0,0,.08,1.11,1.64,1.64,0,0,0,.94.63,8.05,8.05,0,0,0,1.05.27l.36-1.1a1.26,1.26,0,0,1-.66-.3.56.56,0,0,1-.07-.51c0-.15.11-.39.22-.71m-8.77-3.5.08-.39a3.25,3.25,0,0,1,1.07-2,2.17,2.17,0,0,1,1.76-.36,1.89,1.89,0,0,1,1.44,1.15,3.6,3.6,0,0,1,.15,2.24,3.38,3.38,0,0,1-1.07,2,2,2,0,0,1-1.79.42,2.27,2.27,0,0,1-1-.48,2.1,2.1,0,0,1-.63-1,3.22,3.22,0,0,1,0-1.55m3.53-3.89a4.37,4.37,0,0,0-1.19-.08,2.19,2.19,0,0,0-1,.26l-.76.71.86-4.21-1.62-.33L428,30.32l1.62.33.21-1.06.36.88a2.08,2.08,0,0,0,.73.52,4.57,4.57,0,0,0,1,.35,3.92,3.92,0,0,0,2-.09,3.55,3.55,0,0,0,1.66-1.16,4.83,4.83,0,0,0,1-2.23,4.78,4.78,0,0,0,0-2.13,3.41,3.41,0,0,0-.92-1.66,3.47,3.47,0,0,0-1.78-.9m-7.73.84a2.22,2.22,0,0,0-.78-1.41,2.68,2.68,0,0,0-1.72-.53,2.8,2.8,0,0,0-1.69.48l-.73,1.05a2.12,2.12,0,0,0-.84-1.09,2.61,2.61,0,0,0-1.52-.41,2.7,2.7,0,0,0-1.69.48l-.54.93V22.33H415l0,8h1.65l0-4q0-3,1.59-3a1.37,1.37,0,0,1,1.49,1.3c0,.36.06.84.07,1.44l0,4.21h1.64l0-4q0-3,1.59-3a1.53,1.53,0,0,1,1,.33,1.4,1.4,0,0,1,.46,1,11.09,11.09,0,0,1,.07,1.44l0,4.21h1.65l0-4.81a9.84,9.84,0,0,0-.09-1.41M407.7,26.26a2.94,2.94,0,0,1,.57-1.75,1.86,1.86,0,0,1,1.38-.69,1.64,1.64,0,0,1,1.38.5,3.08,3.08,0,0,1,.7,1.65Zm5.75.09a4.84,4.84,0,0,0-.56-2A3.17,3.17,0,0,0,411.58,23a3.48,3.48,0,0,0-2-.38,3.93,3.93,0,0,0-2,.67,3.54,3.54,0,0,0-1.27,1.58A4.77,4.77,0,0,0,406,27.1a5,5,0,0,0,.65,2.27,3.2,3.2,0,0,0,1.41,1.3,4.25,4.25,0,0,0,4.27-.55A3.19,3.19,0,0,0,413.45,28l-1.66.11a1.88,1.88,0,0,1-.55,1.22,1.94,1.94,0,0,1-1.21.51c-1.27.09-2-.71-2.26-2.38l5.7-.41a5.14,5.14,0,0,0,0-.66m-11.83-3a3.33,3.33,0,0,0-2,.9,2.11,2.11,0,0,0-.57,1.84,1.83,1.83,0,0,0,.85,1.42,4.81,4.81,0,0,0,2,.62,4.46,4.46,0,0,1,1.52.4,1,1,0,0,1,.53.77.84.84,0,0,1-.29.8,1.69,1.69,0,0,1-.95.39,1.81,1.81,0,0,1-1.14-.2,1.65,1.65,0,0,1-.72-1l-1.65.21a2.72,2.72,0,0,0,1.28,1.8,3.71,3.71,0,0,0,2.32.36,3.85,3.85,0,0,0,2.14-.88,2,2,0,0,0,.65-1.81,2.11,2.11,0,0,0-.85-1.52,4.68,4.68,0,0,0-2.11-.67,4.68,4.68,0,0,1-1.41-.36.94.94,0,0,1-.52-.74,1,1,0,0,1,.2-.78,1.2,1.2,0,0,1,.82-.39,1.41,1.41,0,0,1,1,.21,1.79,1.79,0,0,1,.62.92l1.66-.21a2.76,2.76,0,0,0-1.13-1.68,3.12,3.12,0,0,0-2.19-.4m-4.38,3a2.42,2.42,0,0,0-1.16-1.47,3,3,0,0,0-2.07-.21,4.08,4.08,0,0,0-1,.35,2.86,2.86,0,0,0-.81.65l-.35,1-.25-1.29-1.62.32,1.56,7.81,1.62-.32-.7-3.5a4.6,4.6,0,0,1,.05-2.63,1.75,1.75,0,0,1,1.31-1.1,1.63,1.63,0,0,1,1.27.16,1.71,1.71,0,0,1,.68,1c.07.26.16.63.25,1.1l.84,4.22,1.62-.32-.88-4.4c-.1-.53-.21-1-.32-1.38M384,29.88a2.92,2.92,0,0,1,.47-1.78,1.86,1.86,0,0,1,1.34-.76,1.65,1.65,0,0,1,1.41.42,3,3,0,0,1,.78,1.62Zm5.75-.22a5,5,0,0,0-.67-2,3.11,3.11,0,0,0-1.38-1.26,3.45,3.45,0,0,0-2-.28,3.85,3.85,0,0,0-2,.77,3.54,3.54,0,0,0-1.18,1.65,4.62,4.62,0,0,0-.22,2.25,4.91,4.91,0,0,0,.76,2.22,3.24,3.24,0,0,0,1.48,1.23,3.94,3.94,0,0,0,2,.22,3.89,3.89,0,0,0,2.25-1,3.14,3.14,0,0,0,1-2.21l-1.66.2a1.75,1.75,0,0,1-.48,1.24,1.86,1.86,0,0,1-1.18.57c-1.26.16-2.05-.59-2.38-2.25l5.67-.71a5.73,5.73,0,0,0-.05-.66m-13.33,3.55-.94-4.06L377,28.8l-.27-1.13L375.2,28l-.43-1.85-1.59.37.43,1.85-1.09.26.26,1.12,1.09-.25,1,4.21c.12.51.2.86.25,1a1.57,1.57,0,0,0,.75,1,2.1,2.1,0,0,0,1.41,0,7.77,7.77,0,0,0,1.16-.37l-.26-1.11a4.67,4.67,0,0,1-.47.14,1.05,1.05,0,0,1-.74,0,1,1,0,0,1-.38-.61c0-.13-.1-.35-.16-.64m-5.8-5.36,1.66-.2L372,25.76l-1.65.19Zm1,8.77,1.64-.19-.93-7.91-1.64.19Zm-3.81.39,2.08-8.28-1.75.21-1.38,7-3-6.44-1.81.22,4,7.54Zm-11-3.78a2.47,2.47,0,0,0-1.29-1.36,3.07,3.07,0,0,0-2.08,0,3.94,3.94,0,0,0-1,.45,2.62,2.62,0,0,0-.73.72l-.26,1-.38-1.26-1.58.47,2.29,7.63,1.58-.47-1-3.42a4.53,4.53,0,0,1-.2-2.63,1.74,1.74,0,0,1,1.2-1.21,1.63,1.63,0,0,1,1.28,0,1.7,1.7,0,0,1,.77.95c.1.25.22.61.35,1.07L357,39.34l1.58-.47-1.29-4.3c-.15-.52-.3-1-.45-1.34m-13,5.11a3.69,3.69,0,0,1,.27-2.25A2,2,0,0,1,345.66,35a2,2,0,0,1,1.78.55,3.53,3.53,0,0,1,.93,2,3.69,3.69,0,0,1-.27,2.25A2,2,0,0,1,346.57,41a2,2,0,0,1-1.8-.55,3.6,3.6,0,0,1-.93-2.06m1.64-4.49a4.27,4.27,0,0,0-2.11.88,3.48,3.48,0,0,0-1.12,1.69,4.93,4.93,0,0,0-.13,2.18,4.83,4.83,0,0,0,.78,2,3.57,3.57,0,0,0,1.58,1.29,4.21,4.21,0,0,0,2.27.21,4.11,4.11,0,0,0,2.09-.88,3.48,3.48,0,0,0,1.13-1.7,4.79,4.79,0,0,0,.13-2.18,4.93,4.93,0,0,0-.78-2.05,3.41,3.41,0,0,0-1.58-1.27,4.2,4.2,0,0,0-2.26-.21M336.23,44.1l1.5-3.4v-.15l-1.67,0-1.28,3.55ZM332.3,34a3.34,3.34,0,0,0-2.15.57,2.12,2.12,0,0,0-.86,1.73,1.86,1.86,0,0,0,.61,1.54,4.91,4.91,0,0,0,1.85.92,4.62,4.62,0,0,1,1.44.63,1,1,0,0,1,.41.85.84.84,0,0,1-.42.74,1.7,1.7,0,0,1-1,.24,1.8,1.8,0,0,1-1.1-.38,1.64,1.64,0,0,1-.55-1.1l-1.67-.05a2.71,2.71,0,0,0,1,2,3.65,3.65,0,0,0,2.24.71,3.77,3.77,0,0,0,2.25-.53,1.94,1.94,0,0,0,.92-1.68,2,2,0,0,0-.59-1.63,4.68,4.68,0,0,0-2-1,4.57,4.57,0,0,1-1.34-.58.92.92,0,0,1-.39-.81,1,1,0,0,1,.32-.74,1.21,1.21,0,0,1,.87-.26,1.4,1.4,0,0,1,1,.38,1.77,1.77,0,0,1,.47,1l1.67,0a2.72,2.72,0,0,0-.85-1.83,3.14,3.14,0,0,0-2.1-.75m-9.66,3.24a2.92,2.92,0,0,1,.75-1.69,1.88,1.88,0,0,1,1.44-.53,1.65,1.65,0,0,1,1.32.63,3,3,0,0,1,.52,1.72Zm5.71.69a4.88,4.88,0,0,0-.34-2.06,3.29,3.29,0,0,0-1.17-1.47,3.45,3.45,0,0,0-1.91-.58,3.84,3.84,0,0,0-2,.46,3.6,3.6,0,0,0-1.43,1.44,4.73,4.73,0,0,0-.57,2.18,5,5,0,0,0,.41,2.32,3.17,3.17,0,0,0,1.27,1.45,4,4,0,0,0,1.92.52,3.91,3.91,0,0,0,2.37-.63,3.14,3.14,0,0,0,1.32-2l-1.67-.06a1.8,1.8,0,0,1-.67,1.15,1.88,1.88,0,0,1-1.25.38c-1.27,0-1.94-.91-2-2.61l5.71.19c0-.19,0-.41.05-.65m-7.67-4.26a1.75,1.75,0,0,0-.63.07,2.24,2.24,0,0,0-.63.28l-.75,1,.1-1.34-1.65-.13-.61,7.94,1.65.13.32-4.13a2.93,2.93,0,0,1,.73-2,2,2,0,0,1,1.67-.53l.25,0,.1-1.29a1.48,1.48,0,0,0-.55-.13m-6.46-1.33,1.66.22.24-1.89-1.65-.22Zm-1.15,8.76,1.64.22,1-7.9-1.64-.21Zm-3.76-.66,4.51-7.23-1.72-.34L308.64,39l-.9-7L306,31.64l1.46,8.4Zm-9.93-4.29a1.23,1.23,0,0,1,.87-1,3.64,3.64,0,0,1,1.89,0c.14,0,.36.08.67.16l-.15.72a2.06,2.06,0,0,1-.77,1.35,1.68,1.68,0,0,1-1.36.25,1.61,1.61,0,0,1-1-.51,1.15,1.15,0,0,1-.18-1m2.36,2.45.57-.76L302.22,39l1.6.33a15.42,15.42,0,0,1,.26-2l.57-2.75c.08-.41.15-.78.18-1.11a2.26,2.26,0,0,0-.47-1.77,3.38,3.38,0,0,0-2-1,3.44,3.44,0,0,0-2.36.25,2.66,2.66,0,0,0-1.35,1.77l1.62.34a1.44,1.44,0,0,1,1.82-1.19,1.54,1.54,0,0,1,.94.49,1.07,1.07,0,0,1,.21.86,8.3,8.3,0,0,1-.15.86l0,.19-.5-.1c-2.89-.6-4.52,0-4.88,1.78a2.07,2.07,0,0,0,.37,1.8,2.78,2.78,0,0,0,1.68,1,3.51,3.51,0,0,0,2-.1M297,31.9a2.4,2.4,0,0,0-.55-1.79,2.91,2.91,0,0,0-1.85-.94,4.26,4.26,0,0,0-1.1-.06,2.86,2.86,0,0,0-1,.32l-.68.81.22-1.3-1.62-.28-1.37,7.84,1.63.29.61-3.52a4.56,4.56,0,0,1,1-2.44,1.78,1.78,0,0,1,1.62-.55,1.5,1.5,0,0,1,1.39,1.8c0,.27-.08.64-.16,1.11l-.74,4.24,1.63.29.77-4.42c.09-.54.15-1,.19-1.4m-15.21-4a3.38,3.38,0,0,0-2.19.43,2.12,2.12,0,0,0-1,1.66,1.88,1.88,0,0,0,.51,1.58,4.81,4.81,0,0,0,1.78,1,4.75,4.75,0,0,1,1.4.73,1,1,0,0,1,.35.87.87.87,0,0,1-.46.72,1.73,1.73,0,0,1-1,.16,1.77,1.77,0,0,1-1.08-.45,1.67,1.67,0,0,1-.47-1.13L278,33.39a2.68,2.68,0,0,0,.85,2,3.69,3.69,0,0,0,2.18.86,3.88,3.88,0,0,0,2.29-.38,2,2,0,0,0,1-1.62,2.09,2.09,0,0,0-.49-1.66A4.65,4.65,0,0,0,282,31.5a4.61,4.61,0,0,1-1.3-.67.9.9,0,0,1-.33-.83,1,1,0,0,1,.36-.72,1.18,1.18,0,0,1,.89-.2,1.39,1.39,0,0,1,.93.44,1.72,1.72,0,0,1,.4,1l1.67.16a2.71,2.71,0,0,0-.73-1.88,3.12,3.12,0,0,0-2-.89m-9.59,2a2.81,2.81,0,0,1,.92-1.59,1.85,1.85,0,0,1,1.49-.39,1.66,1.66,0,0,1,1.25.78,3.07,3.07,0,0,1,.33,1.76Zm5.6,1.29a5,5,0,0,0-.12-2.09,3.35,3.35,0,0,0-1-1.58,3.55,3.55,0,0,0-1.84-.78,4,4,0,0,0-2.08.24,3.74,3.74,0,0,0-1.57,1.28,4.78,4.78,0,0,0-.79,2.12,5,5,0,0,0,.15,2.35,3.29,3.29,0,0,0,1.12,1.57,4.07,4.07,0,0,0,1.85.73,4,4,0,0,0,2.43-.38,3.14,3.14,0,0,0,1.52-1.89l-1.65-.23a1.86,1.86,0,0,1-.78,1.07,2,2,0,0,1-1.3.25c-1.25-.18-1.82-1.11-1.71-2.8l5.66.79a4.75,4.75,0,0,0,.12-.65M268.5,32l.35-8.58-1.64-.07L266.85,32q0,.84,0,1.14a1.33,1.33,0,0,0,.38,1,1.67,1.67,0,0,0,1.07.36,10.12,10.12,0,0,0,1.09,0l0-1.16a1.27,1.27,0,0,1-.71-.1.58.58,0,0,1-.21-.48c0-.16,0-.41,0-.75m-5-6.24a1.67,1.67,0,0,0-.64,0,1.91,1.91,0,0,0-.66.18l-.91.91.32-1.32L260,25.09l-1.86,7.74,1.61.39,1-4a3,3,0,0,1,1-1.81,2.06,2.06,0,0,1,1.74-.25l.24.07L264,26a1.46,1.46,0,0,0-.52-.22m-11.1.81A3,3,0,0,1,253.48,25a1.86,1.86,0,0,1,1.52-.25,1.65,1.65,0,0,1,1.18.88,3.15,3.15,0,0,1,.18,1.79Zm5.48,1.77a4.79,4.79,0,0,0,.05-2.09,3.28,3.28,0,0,0-.86-1.66,3.45,3.45,0,0,0-1.76-.94,3.88,3.88,0,0,0-2.09.06,3.56,3.56,0,0,0-1.68,1.14,4.74,4.74,0,0,0-1,2,5.08,5.08,0,0,0-.05,2.35,3.27,3.27,0,0,0,1,1.66,4,4,0,0,0,1.79.89,3.91,3.91,0,0,0,2.45-.17,3.16,3.16,0,0,0,1.68-1.74l-1.62-.38a1.79,1.79,0,0,1-.88,1,1.88,1.88,0,0,1-1.31.13c-1.23-.28-1.72-1.26-1.46-2.94L257.72,29c.06-.19.12-.4.18-.64m-11.5,2.44,4.82-7.68-1.76-.35L246,28.91l-.85-7-1.81-.36,1.54,8.8-.17.26a2.13,2.13,0,0,1-.82.82,1.7,1.7,0,0,1-1,.09,4.62,4.62,0,0,1-.52-.12l-.23,1.19a4.63,4.63,0,0,0,.75.2,2.67,2.67,0,0,0,1.87-.25,5.31,5.31,0,0,0,1.62-1.76m-8.72-5.87a1.23,1.23,0,0,1,1.08-.76,3.81,3.81,0,0,1,1.84.45l.61.33-.32.66a2.1,2.1,0,0,1-1.07,1.12,1.64,1.64,0,0,1-1.38-.08,1.57,1.57,0,0,1-.82-.73,1.1,1.1,0,0,1,.06-1m1.71,2.94.73-.6-.36,1.11,1.48.7a14.39,14.39,0,0,1,.73-1.89l1.2-2.54c.18-.38.33-.72.45-1a2.3,2.3,0,0,0,0-1.84,3.43,3.43,0,0,0-1.72-1.46A3.52,3.52,0,0,0,239.5,20a2.69,2.69,0,0,0-1.73,1.41l1.49.7a1.44,1.44,0,0,1,2.06-.71,1.5,1.5,0,0,1,.79.7,1.08,1.08,0,0,1,0,.88c-.07.19-.19.46-.35.8l-.08.18-.46-.22q-4-1.9-5.17.56a2.1,2.1,0,0,0-.07,1.84,2.74,2.74,0,0,0,1.4,1.34,3.53,3.53,0,0,0,2,.39m-9.23-7.65.16-.37A3.18,3.18,0,0,1,231.78,18a2.11,2.11,0,0,1,1.79,0,1.92,1.92,0,0,1,1.19,1.4,3.71,3.71,0,0,1-.31,2.23A3.41,3.41,0,0,1,233,23.44a2.05,2.05,0,0,1-1.84,0,2,2,0,0,1-1.29-1.8,3.05,3.05,0,0,1,.29-1.52m4.24-3.11a4.37,4.37,0,0,0-1.15-.31,2.16,2.16,0,0,0-1,.05l-.89.55.49-1.14-1.52-.65-4.27,10,1.52.64,1.57-3.7.17.94a2.31,2.31,0,0,0,.62.65,4.45,4.45,0,0,0,.93.55,3.87,3.87,0,0,0,2,.3,3.58,3.58,0,0,0,1.86-.8,4.91,4.91,0,0,0,1.41-2,4.83,4.83,0,0,0,.43-2.08A3.44,3.44,0,0,0,236,18.3a3.49,3.49,0,0,0-1.56-1.24m-11.79-5.18a3.34,3.34,0,0,0-2.23-.12A2.1,2.1,0,0,0,219,13.14a1.83,1.83,0,0,0,.11,1.65,4.82,4.82,0,0,0,1.47,1.45,4.33,4.33,0,0,1,1.17,1,1,1,0,0,1,.13.93.88.88,0,0,1-.62.59,1.83,1.83,0,0,1-1-.09,1.73,1.73,0,0,1-.93-.7,1.65,1.65,0,0,1-.19-1.21l-1.57-.56a2.68,2.68,0,0,0,.33,2.18,3.68,3.68,0,0,0,1.91,1.37,3.82,3.82,0,0,0,2.3.19,1.94,1.94,0,0,0,1.4-1.32,2,2,0,0,0-.07-1.73,4.54,4.54,0,0,0-1.57-1.56,4.92,4.92,0,0,1-1.1-1,.94.94,0,0,1-.12-.89,1,1,0,0,1,.53-.6,1.15,1.15,0,0,1,.91,0,1.39,1.39,0,0,1,.8.65,1.72,1.72,0,0,1,.13,1.1l1.58.56a2.72,2.72,0,0,0-.25-2,3.11,3.11,0,0,0-1.76-1.35m-7,6.59,3.31-7.25-1.49-.68L215.86,14a4.2,4.2,0,0,1-1.5,2,1.87,1.87,0,0,1-2.58-.75,1.59,1.59,0,0,1,0-1.18,7.44,7.44,0,0,1,.4-1L214,9l-1.49-.68-2,4.31a8.88,8.88,0,0,0-.51,1.31,2.3,2.3,0,0,0,.19,1.68,3,3,0,0,0,1.5,1.32,4.64,4.64,0,0,0,1,.34,3,3,0,0,0,1,0l.92-.67-.57,1.24Zm-6.95-6.1,4-7.61L211.18,4l-4,7.66c-.26.5-.43.83-.51,1a1.35,1.35,0,0,0-.1,1.11,1.67,1.67,0,0,0,.82.77,9,9,0,0,0,1,.44l.54-1a1.26,1.26,0,0,1-.61-.4.58.58,0,0,1,0-.51c.06-.15.18-.37.33-.68m-8.57-4.63.1-.39a3.17,3.17,0,0,1,1.19-2,2.14,2.14,0,0,1,1.77-.26,1.91,1.91,0,0,1,1.38,1.23,3.69,3.69,0,0,1,0,2.24,3.39,3.39,0,0,1-1.19,2,2.07,2.07,0,0,1-1.81.32,2.27,2.27,0,0,1-1-.54A2.22,2.22,0,0,1,200,9.29a3.1,3.1,0,0,1,.08-1.55m3.75-3.68a4.91,4.91,0,0,0-1.19-.15,2.19,2.19,0,0,0-1,.2l-.8.67.32-1.2-1.6-.42L196.79,13.7l1.6.42,1-3.89.3.91a2.28,2.28,0,0,0,.71.56,4.67,4.67,0,0,0,1,.4,3.88,3.88,0,0,0,2,0,3.54,3.54,0,0,0,1.72-1.06,5,5,0,0,0,1.12-2.17,4.83,4.83,0,0,0,.12-2.12,3.44,3.44,0,0,0-.83-1.71,3.48,3.48,0,0,0-1.72-1m-13,4.25-.11-4.17,1.56,0,0-1.15-1.56,0-.05-1.91-1.64,0,0,1.9-1.12,0,0,1.16,1.12,0,.12,4.31c0,.53,0,.89,0,1.07a1.58,1.58,0,0,0,.53,1.14,2.09,2.09,0,0,0,1.37.32,8.69,8.69,0,0,0,1.21-.12l0-1.14-.49.05a1.12,1.12,0,0,1-.72-.17,1,1,0,0,1-.25-.68q0-.21,0-.66m-5.7-6.06,1.66-.06L186.77.28l-1.66.07Zm.34,8.83,1.65-.06-.31-8-1.65.06Zm-6.71-2a1.22,1.22,0,0,1,.62-1.17,3.71,3.71,0,0,1,1.84-.44H182l0,.74a2.08,2.08,0,0,1-.44,1.48,1.7,1.7,0,0,1-1.27.57,1.63,1.63,0,0,1-1.06-.28,1.13,1.13,0,0,1-.4-.91m2.86,1.83.38-.86.19,1.15,1.63-.06a15.63,15.63,0,0,1-.21-2l-.09-2.81c0-.42,0-.79-.08-1.12a2.32,2.32,0,0,0-.86-1.62,3.44,3.44,0,0,0-2.2-.51,3.5,3.5,0,0,0-2.25.79,2.67,2.67,0,0,0-.89,2l1.65,0c.05-1,.55-1.55,1.49-1.58a1.6,1.6,0,0,1,1,.26,1.07,1.07,0,0,1,.4.79,7.66,7.66,0,0,1,.06.87v.2h-.51c-2.94.09-4.39,1-4.33,2.87a2.08,2.08,0,0,0,.77,1.66,2.75,2.75,0,0,0,1.86.55,3.33,3.33,0,0,0,2-.57M175,2.05a.84.84,0,0,1,.35-.59,1.4,1.4,0,0,1,.79-.2,3.68,3.68,0,0,1,.58.05V.08a5,5,0,0,0-.91-.08,2.7,2.7,0,0,0-1.73.52A2.13,2.13,0,0,0,173.36,2c0,.18,0,.49,0,.94v.51h-.85V4.59h.85l.05,6.75H175l0-6.75,1.63,0V3.4H175v-.6a5.53,5.53,0,0,1,0-.76M161.84,7.63a2.9,2.9,0,0,1,.43-1.79,1.87,1.87,0,0,1,1.32-.79,1.67,1.67,0,0,1,1.42.39,3,3,0,0,1,.82,1.6Zm5.74-.35a4.83,4.83,0,0,0-.71-2,3.3,3.3,0,0,0-1.41-1.24,3.5,3.5,0,0,0-2-.23,3.92,3.92,0,0,0-1.93.82,3.67,3.67,0,0,0-1.15,1.67,4.66,4.66,0,0,0-.16,2.25,5,5,0,0,0,.81,2.21A3.16,3.16,0,0,0,162.56,12a3.83,3.83,0,0,0,2,.18,3.92,3.92,0,0,0,2.23-1.05,3.12,3.12,0,0,0,.92-2.23l-1.64.24a1.83,1.83,0,0,1-.46,1.25,1.89,1.89,0,0,1-1.17.6c-1.25.18-2.06-.55-2.43-2.21l5.65-.83a6,6,0,0,0-.06-.66m-10.16.22A2.48,2.48,0,0,0,156,6.29a3,3,0,0,0-2.07.21,3.91,3.91,0,0,0-1,.55,2.8,2.8,0,0,0-.66.8l-.14,1.05-.51-1.22-1.52.64,3.08,7.34,1.52-.64-1.38-3.29a4.58,4.58,0,0,1-.47-2.59A1.73,1.73,0,0,1,154,7.81a1.61,1.61,0,0,1,1.27-.1,1.69,1.69,0,0,1,.87.86c.12.24.28.58.46,1l1.67,4,1.52-.64L158,8.79c-.21-.5-.4-.93-.58-1.29M145.6,13.27a2.42,2.42,0,0,0-1.54-1.07,3,3,0,0,0-2,.41,3.85,3.85,0,0,0-.9.64,2.6,2.6,0,0,0-.58.86l0,1.06L139.88,14l-1.45.78,3.78,7,1.46-.79L142,17.87a4.48,4.48,0,0,1-.72-2.53,1.74,1.74,0,0,1,.93-1.43,1.63,1.63,0,0,1,1.26-.22,1.71,1.71,0,0,1,.95.76c.14.23.33.56.56,1l2,3.79,1.45-.79-2.13-3.94c-.25-.48-.49-.88-.71-1.22m-11.66,7a3.57,3.57,0,0,1,0-2.26,2,2,0,0,1,1.39-1.26,2,2,0,0,1,1.83.3A3.56,3.56,0,0,1,138.33,19a3.58,3.58,0,0,1,0,2.26,2.14,2.14,0,0,1-3.22,1,3.56,3.56,0,0,1-1.21-1.91m1-4.67a4.19,4.19,0,0,0-2,1.16,3.5,3.5,0,0,0-.88,1.82,4.82,4.82,0,0,0,.18,2.18,4.71,4.71,0,0,0,1.05,1.92,3.49,3.49,0,0,0,1.73,1.05,4.69,4.69,0,0,0,4.24-1.26,3.48,3.48,0,0,0,.88-1.84A5.18,5.18,0,0,0,139,16.57a3.55,3.55,0,0,0-1.75-1.05,4.24,4.24,0,0,0-2.27.11M127,26.78l1.31-3.48v-.15l-1.67.05-1.08,3.62Zm-6.54-6.88a3,3,0,0,1,.85-1.64,1.88,1.88,0,0,1,1.48-.44,1.62,1.62,0,0,1,1.28.72,3.07,3.07,0,0,1,.41,1.75ZM126.14,21a4.88,4.88,0,0,0-.22-2.08,3.24,3.24,0,0,0-1.07-1.54,3.5,3.5,0,0,0-1.87-.7,3.83,3.83,0,0,0-2.06.33,3.56,3.56,0,0,0-1.52,1.34,4.72,4.72,0,0,0-.71,2.15,5.06,5.06,0,0,0,.26,2.33,3.21,3.21,0,0,0,1.18,1.53,4.25,4.25,0,0,0,4.29.17,3.18,3.18,0,0,0,1.44-1.95l-1.66-.16a1.79,1.79,0,0,1-.74,1.1,1.85,1.85,0,0,1-1.28.3q-1.89-.18-1.83-2.73l5.69.56c0-.19.07-.41.1-.65m-8.46-5.39a3.28,3.28,0,0,0-2.22-.16,2.12,2.12,0,0,0-1.37,1.35,1.88,1.88,0,0,0,.08,1.66,4.88,4.88,0,0,0,1.45,1.47A4.42,4.42,0,0,1,116.78,21a1,1,0,0,1,.11.93.86.86,0,0,1-.63.57,1.76,1.76,0,0,1-1-.1,1.83,1.83,0,0,1-.92-.72,1.65,1.65,0,0,1-.16-1.21l-1.56-.59a2.67,2.67,0,0,0,.29,2.19,3.65,3.65,0,0,0,1.88,1.4,3.85,3.85,0,0,0,2.3.23,1.94,1.94,0,0,0,1.42-1.3,2.08,2.08,0,0,0,0-1.73A4.77,4.77,0,0,0,116.91,19a4.72,4.72,0,0,1-1.08-1,.89.89,0,0,1-.11-.89,1,1,0,0,1,.54-.6,1.14,1.14,0,0,1,.9,0,1.41,1.41,0,0,1,.8.66,1.73,1.73,0,0,1,.11,1.1l1.57.6a2.74,2.74,0,0,0-.22-2,3,3,0,0,0-1.74-1.38m-10.41,1.89a1.23,1.23,0,0,1,1.06-.8,3.68,3.68,0,0,1,1.85.39l.62.31-.29.67a2.06,2.06,0,0,1-1,1.15,1.67,1.67,0,0,1-1.38,0,1.55,1.55,0,0,1-.84-.7,1.11,1.11,0,0,1,0-1m1.81,2.88.71-.63-.32,1.12,1.49.66a15.16,15.16,0,0,1,.68-1.92L112.76,17c.16-.39.3-.74.4-1a2.3,2.3,0,0,0-.09-1.83,3.37,3.37,0,0,0-1.77-1.4,3.48,3.48,0,0,0-2.36-.25,2.64,2.64,0,0,0-1.69,1.46l1.52.66a1.44,1.44,0,0,1,2-.79,1.52,1.52,0,0,1,.82.68,1.07,1.07,0,0,1,0,.88c-.07.2-.17.47-.32.81l-.08.18-.47-.2c-2.7-1.18-4.42-.93-5.15.73a2.08,2.08,0,0,0,0,1.84A2.71,2.71,0,0,0,107.06,20a3.48,3.48,0,0,0,2,.33m-11.43-5v-.41a3.2,3.2,0,0,1,.59-2.22,2.15,2.15,0,0,1,1.63-.75,1.9,1.9,0,0,1,1.66.8,3.61,3.61,0,0,1,.65,2.15,3.38,3.38,0,0,1-.58,2.23,2.08,2.08,0,0,1-1.65.81A2.08,2.08,0,0,1,98,16.78a3.25,3.25,0,0,1-.36-1.5m2.57-4.58a4.61,4.61,0,0,0-1.18.18,2.34,2.34,0,0,0-.89.47l-.58.87-.1-4.31L95.82,8l.27,11,1.65-.05,0-1.07.55.78a2.23,2.23,0,0,0,.83.34,4.4,4.4,0,0,0,1.07.1,3.79,3.79,0,0,0,1.92-.53,3.49,3.49,0,0,0,1.36-1.5,5,5,0,0,0,.47-2.4,4.85,4.85,0,0,0-.48-2.07,3.43,3.43,0,0,0-1.28-1.41,3.46,3.46,0,0,0-1.93-.47m-10,.33a1.7,1.7,0,0,0-.62.17,2.15,2.15,0,0,0-.57.37l-.58,1.15-.11-1.35-1.65.13.64,7.94L89,19.31l-.33-4.12a3,3,0,0,1,.42-2,2.08,2.08,0,0,1,1.57-.78h.26l-.11-1.29a1.66,1.66,0,0,0-.56,0M85.5,19.6l-1.61-7.8-1.61.33L83,15.8a4.24,4.24,0,0,1,0,2.49,1.71,1.71,0,0,1-1.29,1.05,1.75,1.75,0,0,1-1.24-.13,1.66,1.66,0,0,1-.73-.93c-.11-.35-.2-.7-.28-1.06l-.89-4.32-1.6.33,1,4.64a9.57,9.57,0,0,0,.36,1.37,2.28,2.28,0,0,0,1.15,1.24,3,3,0,0,0,2,.18,4.37,4.37,0,0,0,1-.35,3,3,0,0,0,.81-.63l.34-1.09.28,1.34Zm-15.3.17a2.91,2.91,0,0,1-.15-1.83,1.87,1.87,0,0,1,1-1.17,1.66,1.66,0,0,1,1.47-.08A3,3,0,0,1,73.8,18Zm5.34-2.15A5.08,5.08,0,0,0,74.25,16a3.35,3.35,0,0,0-1.73-.72,3.53,3.53,0,0,0-2,.41A3.92,3.92,0,0,0,69,17.06,3.5,3.5,0,0,0,68.44,19,4.74,4.74,0,0,0,69,21.19,4.9,4.9,0,0,0,70.46,23a3.32,3.32,0,0,0,1.81.66,4,4,0,0,0,1.94-.46A4,4,0,0,0,76,21.53a3.18,3.18,0,0,0,.17-2.42l-1.49.75a1.79,1.79,0,0,1,0,1.33,1.91,1.91,0,0,1-.92.94c-1.13.57-2.14.13-3-1.32l5.1-2.58c-.07-.18-.16-.38-.27-.61m-7.3,6.17-5.16-6.87-1.32,1L67,24.82c.34.45.57.75.7.9a1.38,1.38,0,0,0,1,.57,1.73,1.73,0,0,0,1-.41,8.85,8.85,0,0,0,.82-.71l-.7-.92a1.32,1.32,0,0,1-.62.37.6.6,0,0,1-.46-.24l-.46-.59m-10-.49a3.29,3.29,0,0,0-1.69,1.45,2.09,2.09,0,0,0,0,1.92,1.85,1.85,0,0,0,1.22,1.12,4.71,4.71,0,0,0,2.07,0,4.5,4.5,0,0,1,1.57-.05,1,1,0,0,1,.73.59.86.86,0,0,1,0,.85,1.75,1.75,0,0,1-.8.64,1.73,1.73,0,0,1-1.15.13,1.6,1.6,0,0,1-1-.75l-1.53.68a2.75,2.75,0,0,0,1.75,1.36,3.63,3.63,0,0,0,2.32-.33,3.88,3.88,0,0,0,1.8-1.45,2,2,0,0,0,.1-1.92,2.08,2.08,0,0,0-1.24-1.21,4.6,4.6,0,0,0-2.22,0,4.74,4.74,0,0,1-1.46.06,1,1,0,0,1-.7-.56,1,1,0,0,1,0-.81,1.2,1.2,0,0,1,.67-.61,1.39,1.39,0,0,1,1-.08,1.78,1.78,0,0,1,.86.71L62,24.34a2.81,2.81,0,0,0-1.57-1.28,3.14,3.14,0,0,0-2.21.24m-7,3.31,1.36-1-1.09-1.56-1.36,1Zm5.1,7.22,1.34-.95-4.59-6.51-1.34.95Zm-6.06-5.57a2,2,0,0,0-.43.47,2.18,2.18,0,0,0-.27.63l.12,1.28-.82-1.08-1.31,1L52.4,36.9l1.31-1L51.2,32.61a3,3,0,0,1-.75-1.95,2,2,0,0,1,.9-1.5l.21-.14-.78-1a1.54,1.54,0,0,0-.5.27m-6,10.82L44,38.79a3.19,3.19,0,0,1-1-2,2.14,2.14,0,0,1,.72-1.65,1.91,1.91,0,0,1,1.77-.51,3.63,3.63,0,0,1,1.91,1.17,3.36,3.36,0,0,1,1,2,2.08,2.08,0,0,1-.69,1.71,2.09,2.09,0,0,1-2.17.46,3.24,3.24,0,0,1-1.28-.89M43.12,34a4.49,4.49,0,0,0-.76.93,2.38,2.38,0,0,0-.35.94l.15,1-.85-.91L40.1,37.07l7.47,8,1.2-1.13L46,41l.93.22a2.23,2.23,0,0,0,.85-.3,4.24,4.24,0,0,0,.86-.63,3.92,3.92,0,0,0,1.08-1.68,3.55,3.55,0,0,0,0-2,5.07,5.07,0,0,0-1.25-2.1,5,5,0,0,0-1.74-1.23,3.43,3.43,0,0,0-1.89-.2,3.56,3.56,0,0,0-1.76.93M38.25,47.61a3,3,0,0,1-1.35-1.26,1.88,1.88,0,0,1,0-1.54,1.63,1.63,0,0,1,1-1,3,3,0,0,1,1.8.08Zm2.53-5.16a4.78,4.78,0,0,0-2.06-.36,3.26,3.26,0,0,0-1.77.62,3.55,3.55,0,0,0-1.18,1.61,3.94,3.94,0,0,0-.24,2.07,3.58,3.58,0,0,0,.89,1.83,4.68,4.68,0,0,0,1.87,1.26,5,5,0,0,0,2.32.38,3.22,3.22,0,0,0,1.79-.72,4.28,4.28,0,0,0,1.32-4.09,3.13,3.13,0,0,0-1.49-1.91l-.6,1.55a1.79,1.79,0,0,1,.86,1A1.86,1.86,0,0,1,42.43,47c-.45,1.19-1.49,1.53-3.11,1l2.07-5.33a6.21,6.21,0,0,0-.61-.26m-7.59,5.89a2,2,0,0,0-.1.63,2.25,2.25,0,0,0,.11.68l.79,1-1.27-.47-.56,1.55,7.48,2.73.57-1.55L36.32,51.5a2.93,2.93,0,0,1-1.69-1.22,2.1,2.1,0,0,1-.05-1.76l.1-.23-1.21-.44a1.75,1.75,0,0,0-.28.49m1.58,15.45a1.23,1.23,0,0,1-.87-1,3.69,3.69,0,0,1,.25-1.87c0-.14.13-.35.25-.65l.69.24a2.07,2.07,0,0,1,1.23.94,1.64,1.64,0,0,1,.08,1.39,1.62,1.62,0,0,1-.63.89,1.11,1.11,0,0,1-1,0m2.74-2-.68-.66,1.14.23.53-1.54a15.77,15.77,0,0,1-2-.52l-2.65-.92c-.4-.13-.76-.24-1.08-.32a2.3,2.3,0,0,0-1.82.23,4.15,4.15,0,0,0-1.32,4.25,2.68,2.68,0,0,0,1.59,1.57l.54-1.56a1.44,1.44,0,0,1-.94-2,1.48,1.48,0,0,1,.61-.87,1.11,1.11,0,0,1,.88-.09c.19,0,.47.13.83.25l.18.07-.16.48c-1,2.79-.59,4.48,1.13,5.07a2.1,2.1,0,0,0,1.84-.13,2.78,2.78,0,0,0,1.17-1.54,3.45,3.45,0,0,0,.17-2m-7.87,7.69a2.48,2.48,0,0,0-1.85.35,3,3,0,0,0-1.14,1.73,4.27,4.27,0,0,0-.17,1.09,2.76,2.76,0,0,0,.2,1l.73.77-1.27-.37-.46,1.59,7.64,2.23.47-1.59-3.43-1A4.59,4.59,0,0,1,28.05,74a1.73,1.73,0,0,1-.36-1.67,1.68,1.68,0,0,1,.72-1.06,1.8,1.8,0,0,1,1.21-.13c.27.06.63.15,1.09.29l4.14,1.2.46-1.58L31,69.81c-.52-.15-1-.26-1.36-.35M26.25,82.94a3.55,3.55,0,0,1-1.74-1.44,2,2,0,0,1-.06-1.87,2,2,0,0,1,1.42-1.2,3.63,3.63,0,0,1,2.24.32,3.52,3.52,0,0,1,1.74,1.45,2,2,0,0,1,.07,1.86,2,2,0,0,1-1.43,1.21,3.63,3.63,0,0,1-2.24-.33m-2.89-3.8a4.11,4.11,0,0,0-.4,2.24,3.52,3.52,0,0,0,.81,1.86A5.22,5.22,0,0,0,27.68,85a3.59,3.59,0,0,0,1.93-.64A4.07,4.07,0,0,0,31,82.54a4.16,4.16,0,0,0,.39-2.24,3.5,3.5,0,0,0-.82-1.86,5.22,5.22,0,0,0-3.91-1.74,3.44,3.44,0,0,0-1.93.65,4.12,4.12,0,0,0-1.39,1.79M28,92.81l-2.35-2.87-.13-.08-.79,1.47,2.59,2.74Zm-11-2.18.81-1.46-1.66-.93-.81,1.46Zm7.71,4.31.81-1.44-7-3.89-.8,1.44Zm-.86,1.6-6.71-4.3-.88,1.38,3.16,2a4.36,4.36,0,0,1,1.74,1.77,1.89,1.89,0,0,1-1.11,2.45A1.57,1.57,0,0,1,19,99.73a10.18,10.18,0,0,1-1-.54l-3.71-2.37-.88,1.37,4,2.56a11.39,11.39,0,0,0,1.23.7,2.29,2.29,0,0,0,1.69,0,3,3,0,0,0,1.52-1.3,4.26,4.26,0,0,0,.48-1,2.81,2.81,0,0,0,.11-1l-.53-1,1.15.74Zm-9.11,3.57A2.44,2.44,0,0,0,13,99.67a3,3,0,0,0-1.75,1.12,4,4,0,0,0-.6.92,2.63,2.63,0,0,0-.23,1l.34,1-3.39-2.89-1.07,1.26,8.45,7.2L15.81,108l-2.71-2.32a4.48,4.48,0,0,1-1.59-2.11,1.8,1.8,0,0,1,.38-1.69,1.51,1.51,0,0,1,1.07-.63,1.75,1.75,0,0,1,1.15.37c.22.16.51.4.88.71l3.27,2.79,1.07-1.26L15.92,101c-.41-.35-.78-.65-1.1-.88m-7.59,7-2-3.52-.12-.09-1.06,1.3,2.31,3.38ZM5.1,117.89a3.41,3.41,0,0,1-1.87-1.35,2,2,0,0,1-.17-1.82,2.23,2.23,0,0,1,.63-.92,2.07,2.07,0,0,1,1.1-.49,3,3,0,0,1,1.52.2l.4.14A3.23,3.23,0,0,1,8.57,115a2.15,2.15,0,0,1,.1,1.81,1.91,1.91,0,0,1-1.33,1.26,3.7,3.7,0,0,1-2.24-.18m5.84-4.48L.56,109.7,0,111.25l3.9,1.4-.93.22a2.2,2.2,0,0,0-.61.66,4.35,4.35,0,0,0-.49,1,3.87,3.87,0,0,0-.19,2,3.51,3.51,0,0,0,.91,1.81,4.88,4.88,0,0,0,2.05,1.29,5,5,0,0,0,2.12.3,3.41,3.41,0,0,0,1.78-.68,3.44,3.44,0,0,0,1.14-1.63,4.12,4.12,0,0,0,.23-1.15,2.42,2.42,0,0,0-.1-1l-.61-.86,1.18.42Zm-10.13,9A1.93,1.93,0,0,0,1,123a2.46,2.46,0,0,0,.38.57l1.15.58-1.35.11.13,1.65,7.94-.65-.13-1.64L5,124a2.91,2.91,0,0,1-2-.41A2.05,2.05,0,0,1,2.15,122v-.26l-1.28.11a1.43,1.43,0,0,0,0,.56m8.53,4.73-7.62,2.31L2.2,131l3.58-1.09a4.25,4.25,0,0,1,2.48-.18,1.89,1.89,0,0,1,1.15,2.43,1.67,1.67,0,0,1-.86.81c-.33.14-.68.27-1,.38L3.3,134.65l.48,1.56,4.53-1.37a10.09,10.09,0,0,0,1.33-.49,2.3,2.3,0,0,0,1.13-1.26,3,3,0,0,0,0-2,3.94,3.94,0,0,0-.43-1,3.12,3.12,0,0,0-.71-.75l-1.11-.24,1.31-.4Zm6.36,14a3.53,3.53,0,0,1-1.59,1.61,2,2,0,0,1-1.87-.12,2,2,0,0,1-1.06-1.52,3.53,3.53,0,0,1,.52-2.19,3.54,3.54,0,0,1,1.6-1.61,2,2,0,0,1,1.86.09,2,2,0,0,1,1.07,1.54,3.57,3.57,0,0,1-.53,2.2m-4,2.54a4.09,4.09,0,0,0,2.2.6,3.38,3.38,0,0,0,1.92-.65A4.71,4.71,0,0,0,17.22,142a4.78,4.78,0,0,0,.64-2.09,3.54,3.54,0,0,0-.46-2,4.12,4.12,0,0,0-1.66-1.56,4.12,4.12,0,0,0-2.2-.59,3.52,3.52,0,0,0-1.93.65,4.71,4.71,0,0,0-1.44,1.64,4.91,4.91,0,0,0-.64,2.09,3.43,3.43,0,0,0,.47,2,4.24,4.24,0,0,0,1.66,1.55m8.06,4.8-1.63-.35-.4,1.87,1.63.34ZM20,139l-1.75,8.25,1.6.34,1.76-8.29a6.49,6.49,0,0,1,.17-.66.72.72,0,0,1,.38-.46,1.13,1.13,0,0,1,.72,0,2.06,2.06,0,0,1,.29.07l.26-1.21a5.64,5.64,0,0,0-.67-.18,2.51,2.51,0,0,0-1.67.09,1.78,1.78,0,0,0-.86,1.14c-.09.35-.17.66-.23.93m3.27,1L24,148l1.63-.14-.33-3.74a4.21,4.21,0,0,1,.33-2.46,1.88,1.88,0,0,1,2.62-.62,1.64,1.64,0,0,1,.61,1,8,8,0,0,1,.16,1.09l.39,4.39,1.63-.14-.42-4.72a9.64,9.64,0,0,0-.2-1.4,2.33,2.33,0,0,0-1-1.37,3,3,0,0,0-2-.4,4.49,4.49,0,0,0-1.07.22,2.65,2.65,0,0,0-.88.54l-.46,1-.12-1.36Zm15.17,2.05.09,4.49L35.84,143Zm0-1.38L35,141.94l-2.21-2.84-1.68.61,6.9,8.52,2-.72v-11l-1.65.59Z" transform="translate(0)"/><path class="cls-3" d="M557.46,111.49c.14.16.3.33.49.52l.62.62.79.82.21-.15q-.3-.57-.51-1c-.14-.3-.26-.56-.38-.8s-.21-.45-.31-.63-.21-.37-.32-.54a1.11,1.11,0,0,0-.18-.19.6.6,0,0,0-.23-.1.55.55,0,0,0-.22,0,.62.62,0,0,0-.22.1.46.46,0,0,0-.17.17.44.44,0,0,0-.1.22.56.56,0,0,0,0,.26,1.71,1.71,0,0,0,.12.23,5.65,5.65,0,0,0,.4.48m5.72,6.2c-.14-.16-.31-.33-.49-.52l-.62-.62-.8-.82-.2.15.5,1,.37.8c.11.24.22.45.32.64s.21.37.32.54a1.11,1.11,0,0,0,.18.19.75.75,0,0,0,.24.09.55.55,0,0,0,.22,0,.62.62,0,0,0,.22-.1.65.65,0,0,0,.17-.16.6.6,0,0,0,.1-.23.52.52,0,0,0,0-.25,1,1,0,0,0-.11-.23c-.12-.16-.26-.32-.4-.48m1.61-5.55a.57.57,0,0,0,0-.69.69.69,0,0,0-.17-.17.6.6,0,0,0-.21-.08.52.52,0,0,0-.25,0,.64.64,0,0,0-.23.12,6,6,0,0,0-.49.39l-.51.49-.62.63-.82.79.14.21,1-.51.79-.37c.24-.11.45-.22.64-.32a5.31,5.31,0,0,0,.53-.32,1.2,1.2,0,0,0,.2-.18m-9,5.12a.52.52,0,0,0,0,.25.65.65,0,0,0,.11.22.52.52,0,0,0,.17.16.78.78,0,0,0,.21.09.65.65,0,0,0,.24,0,.85.85,0,0,0,.23-.12,6,6,0,0,0,.49-.39c.16-.15.33-.31.51-.5s.39-.39.63-.63.5-.49.82-.78l-.15-.21-1,.5-.8.38-.63.32c-.19.1-.37.21-.54.32a.58.58,0,0,0-.28.4m.34-2.84c.21,0,.45,0,.71,0h.88c.33,0,.71,0,1.14,0l0-.27-1.08-.36-.83-.3-.68-.22a4.39,4.39,0,0,0-.6-.15.63.63,0,0,0-.48.08.65.65,0,0,0-.25.4.55.55,0,0,0,.1.46.6.6,0,0,0,.42.24,4.2,4.2,0,0,0,.62.07m4.38-4c0,.21,0,.44,0,.7V112c0,.33,0,.71,0,1.15l.26,0c.13-.41.25-.77.37-1.08s.21-.58.29-.83.16-.47.23-.67a4.15,4.15,0,0,0,.14-.61.6.6,0,0,0-.08-.48.57.57,0,0,0-.4-.24.57.57,0,0,0-.7.52,4.2,4.2,0,0,0-.07.62M559,119.7a.64.64,0,0,0,.85.15.64.64,0,0,0,.25-.43,6.2,6.2,0,0,0,.06-.62c0-.21,0-.44,0-.7v-.89c0-.32,0-.7,0-1.14l-.26,0c-.13.41-.26.77-.37,1.08l-.29.83c-.08.24-.16.47-.22.67a6,6,0,0,0-.15.61.64.64,0,0,0,.09.48m6.43-3.78a.62.62,0,0,0,.25-.4.56.56,0,0,0-.1-.46.6.6,0,0,0-.42-.24,4.07,4.07,0,0,0-.61-.07h-1.6c-.33,0-.71,0-1.13,0l0,.27,1.08.36.83.3.67.22a4.34,4.34,0,0,0,.6.14.63.63,0,0,0,.48-.08m-5.36-2.36a1.22,1.22,0,0,0-.37.16,1.06,1.06,0,0,0-.27.29.93.93,0,0,0-.15.39,1,1,0,0,0,0,.42,1.14,1.14,0,0,0,.17.37,1,1,0,0,0,.29.28,1.07,1.07,0,0,0,.41.16,1.24,1.24,0,0,0,.43,0,1.14,1.14,0,0,0,.37-.17,1.28,1.28,0,0,0,.28-.29,1.32,1.32,0,0,0,.15-.39,1.17,1.17,0,0,0,0-.42,1.53,1.53,0,0,0-.16-.37,1.12,1.12,0,0,0-.3-.27,1.09,1.09,0,0,0-.4-.16,1.29,1.29,0,0,0-.44,0" transform="translate(0)"/></g></g></g></svg>